# xmcd
#
# Track frame offsets: 
#        209
#        25951
#        47719
#        63709
#        89234
#        113103
#        133740
#        151323
#        178769
#        199249
#        217669
#        235444
#
# Disc length: 3384 seconds
#
# Revision: 0
# Processed by: cddbd v1.4PL0 Copyright (c) Steve Scherf et al.
# Submitted via: ExactAudioCopy v0.95a4
#
DISCID=b10d360c
DTITLE=Stewart and Winfield - Bum Parade
DYEAR=1999
DGENRE=
TTITLE0=Bum Parade
TTITLE1=Head and Heart
TTITLE2=Another Round
TTITLE3=Blue Sky
TTITLE4=The Importance of Learning To Fly
TTITLE5=Bottle of You
TTITLE6=Getaway
TTITLE7=Learn To Pray
TTITLE8=Texas
TTITLE9=West Central Georgia
TTITLE10=The L and N Don't Stop Here Anymore
TTITLE11=My Side
EXTD=
EXTT0=
EXTT1=
EXTT2=
EXTT3=
EXTT4=
EXTT5=
EXTT6=
EXTT7=
EXTT8=
EXTT9=
EXTT10=
EXTT11=
PLAYORDER=
